HIERARCHY
ROOT Hips
{
    OFFSET 0.000000 0.000000 0.000000
    CHANNELS 6 Xposition Yposition Zposition Zrotation Xrotation Yrotation
    JOINT Spine
    {
        OFFSET -0.000000 7.236184 0.000000
        CHANNELS 3 Zrotation Xrotation Yrotation
        JOINT Spine1
        {
            OFFSET -0.000000 20.420147 0.000000
            CHANNELS 3 Zrotation Xrotation Yrotation
            JOINT Neck
            {
                OFFSET -0.000000 20.336288 1.848754
                CHANNELS 3 Zrotation Xrotation Yrotation
                JOINT Head
                {
                    OFFSET -0.000000 12.354461 -1.764923
                    CHANNELS 3 Zrotation Xrotation Yrotation
                    End Site
                    {
                        OFFSET -0.000000 22.061537 0.000000
                    }
                }
            }
            JOINT LeftShoulder
            {
                OFFSET 3.573296 18.396038 -0.314103
                CHANNELS 3 Zrotation Xrotation Yrotation
                JOINT LeftArm
                {
                    OFFSET 10.880760 0.000000 0.000000
                    CHANNELS 3 Zrotation Xrotation Yrotation
                    JOINT LeftForeArm
                    {
                        OFFSET 27.185530 0.000000 0.000000
                        CHANNELS 3 Zrotation Xrotation Yrotation
                        JOINT LeftHand
                        {
                            OFFSET 27.825975 0.000000 0.000000
                            CHANNELS 3 Zrotation Xrotation Yrotation
                            End Site
                            {
                                OFFSET 13.236923 0.000000 0.000000
                            }
                        }
                    }
                }
            }
            JOINT RightShoulder
            {
                OFFSET -3.474926 18.396038 -0.314103
                CHANNELS 3 Zrotation Xrotation Yrotation
                JOINT RightArm
                {
                    OFFSET -10.880760 0.000000 0.000000
                    CHANNELS 3 Zrotation Xrotation Yrotation
                    JOINT RightForeArm
                    {
                        OFFSET -27.185530 0.000000 0.000000
                        CHANNELS 3 Zrotation Xrotation Yrotation
                        JOINT RightHand
                        {
                            OFFSET -27.825975 0.000000 0.000000
                            CHANNELS 3 Zrotation Xrotation Yrotation
                            End Site
                            {
                                OFFSET -13.236923 0.000000 0.000000
                            }
                        }
                    }
                }
            }
        }
    }
    JOINT LeftUpLeg
    {
        OFFSET 8.824615 0.000000 0.000000
        CHANNELS 3 Zrotation Xrotation Yrotation
        JOINT LeftLeg
        {
            OFFSET -0.000000 -35.111282 0.000000
            CHANNELS 3 Zrotation Xrotation Yrotation
            JOINT LeftFoot
            {
                OFFSET -0.000000 -42.324711 0.000000
                CHANNELS 3 Zrotation Xrotation Yrotation
                JOINT LeftToeBase
                {
                    OFFSET -0.000000 -5.735999 13.236923
                    CHANNELS 3 Zrotation Xrotation Yrotation
                    End Site
                    {
                        OFFSET -0.000000 0.000000 3.529846
                    }
                }
            }
        }
    }
    JOINT RightUpLeg
    {
        OFFSET -8.824615 0.000000 0.000000
        CHANNELS 3 Zrotation Xrotation Yrotation
        JOINT RightLeg
        {
            OFFSET -0.000000 -35.111282 0.000000
            CHANNELS 3 Zrotation Xrotation Yrotation
            JOINT RightFoot
            {
                OFFSET -0.000000 -42.324711 0.000000
                CHANNELS 3 Zrotation Xrotation Yrotation
                JOINT RightToeBase
                {
                    OFFSET -0.000000 -5.735999 13.236923
                    CHANNELS 3 Zrotation Xrotation Yrotation
                    End Site
                    {
                        OFFSET -0.000000 0.000000 3.529846
                    }
                }
            }
        }
    }
}
MOTION
Frames:    5
Frame Time:    0.008333
-9.825218    84.989586    101.965477    -0.527573    -8.142218    175.805634    -4.266859    -12.409470    -1.717168    1.103510    0.109359    -1.254206    3.384717    3.720833    -4.997529    6.661052    3.893485    -4.867853    0.635132    15.548365    -0.164849    -57.463062    25.140482    -24.932056    -2.100536    -4.306646    -6.991332    16.212173    -4.295056    0.982467    8.100039    16.768007    -9.157310    50.621140    40.095459    24.531591    -2.745582    -10.274340    17.941296    -15.691140    -9.497415    -2.577204    1.584489    -12.452410    0.300479    -0.421494    18.355066    10.222253    -1.942213    -11.263103    -12.504253    -0.695922    -0.262801    0.771769    -12.393417    -12.270900    0.120791    5.331048    13.834607    -4.665120    11.686700    0.417316    -5.134810    -0.455763    -3.782972    0.495598
-10.012087    85.055199    102.094307    -0.444899    -8.326236    175.042694    -4.219199    -12.122934    -1.922796    1.364695    -0.215011    -1.472059    3.649405    3.617366    -4.563926    6.312748    3.771502    -4.481209    0.733908    15.472916    -0.292332    -57.352715    24.973316    -24.844593    -1.888326    -4.524416    -7.256132    16.383451    -4.496394    1.026807    8.079549    16.666836    -9.231977    50.544857    39.688194    24.533731    -2.771669    -10.276905    17.825422    -15.667422    -9.505196    -2.533726    1.696379    -12.578845    0.650743    -0.494627    18.254684    10.726158    -1.964183    -11.198941    -12.581026    -0.654045    -0.268792    0.725336    -12.757287    -14.059447    0.151103    5.923813    15.833777    -4.874886    12.356338    1.220799    -4.676300    -0.444042    -4.274253    0.483202
-10.214436    85.121788    102.244499    -0.364838    -8.523042    174.165314    -4.147112    -11.808042    -2.130242    1.643403    -0.530282    -1.693610    3.931976    3.521163    -4.071264    5.930350    3.618618    -4.038408    0.825455    15.396405    -0.406735    -57.207001    24.832157    -24.756388    -1.643041    -4.785816    -7.571955    16.587305    -4.736140    1.087671    8.054930    16.562115    -9.291054    50.445694    39.211502    24.582172    -2.810127    -10.295306    17.741320    -15.660823    -9.524684    -2.498633    1.812168    -12.724586    0.984394    -0.578675    18.165232    11.350736    -1.983745    -11.138820    -12.653844    -0.616582    -0.277231    0.683800    -13.170194    -16.072390    0.112266    6.600379    18.061802    -5.087310    13.087678    2.131203    -4.190772    -0.415265    -4.743002    0.452204
-10.427509    85.184494    102.412483    -0.293569    -8.725104    173.191055    -4.049873    -11.471952    -2.328216    1.924186    -0.821451    -1.907492    4.224152    3.437669    -3.533082    5.525775    3.433869    -3.551435    0.907082    15.319523    -0.503797    -57.024494    24.717653    -24.670181    -1.370719    -5.081540    -7.931433    16.822870    -5.005361    1.159611    8.031338    16.459799    -9.330301    50.325237    38.678722    24.676754    -2.860029    -10.334354    17.701448    -15.673117    -9.559991    -2.475730    1.928019    -12.891595    1.286149    -0.675075    18.103081    12.090177    -2.002326    -11.089152    -12.720744    -0.584787    -0.289790    0.648554    -13.624679    -18.265507    -0.023036    7.338966    20.468245    -5.288808    13.855592    3.110311    -3.701778    -0.363227    -5.147946    0.395778
-10.629715    85.234833    102.579666    -0.239794    -8.909439    172.223801    -3.938483    -11.148121    -2.494035    2.172033    -1.058532    -2.089470    4.495659    3.373847    -3.009100    5.142576    3.235495    -3.074804    0.972089    15.249580    -0.575227    -56.825794    24.628166    -24.596704    -1.100582    -5.373128    -8.292301    17.069345    -5.268888    1.229015    8.016226    16.372831    -9.347960    50.195835    38.151466    24.802982    -2.914661    -10.391328    17.710943    -15.699896    -9.609054    -2.467110    2.033304    -13.066170    1.528531    -0.776835    18.084375    12.862051    -2.019835    -11.057446    -12.775126    -0.560641    -0.306304    0.621794    -14.075098    -20.408340    -0.251158    8.055696    22.803175    -5.457417    14.573814    4.032535    -3.266181    -0.290470    -5.436608    0.316640
